<svg xmlns="http://www.w3.org/2000/svg" viewBox="0 0 900 520" role="img" aria-labelledby="bk-t bk-d" font-family="var(--serif)">
<title id="bk-t">Ways across the Rhine</title><desc id="bk-d">A chart of the crossings at Remagen from 7 to 25 March 1945 after MacDonald. The Ludendorff Bridge is in use from the evening of 7 March, closed for repairs from 13 March and collapses on 17 March. Ponton ferries run from 9 March, amphibious trucks from 14 March. The treadway bridge from Remagen to Erpel is built from 10 March and opened on 11 March; a heavy ponton bridge at Linz opens at midnight on 11 March. Three VII Corps bridges open on 17, 19 and 21 March, a Bailey bridge on 20 March. Below: the crossing on 7 March, the limit of a thousand yards a day on 9 March, Eisenhower's directive on 13 March, the collapse on 17 March, the Sieg on 21 March, the German counterattack on 24 March and the breakout on 25 March.</desc>
<defs><pattern id="bk-h" width="8" height="8" patternUnits="userSpaceOnUse" patternTransform="rotate(45)"><rect width="8" height="8" fill="var(--panel)"/><line x1="0" y1="0" x2="0" y2="8" stroke="var(--bruecke)" stroke-width="3"/></pattern></defs>
<text x="16" y="28" font-size="17" font-weight="bold" fill="var(--ink)">Ways across the Rhine</text>
<text x="16" y="48" font-size="13" fill="var(--ink2)">7–25 March 1945, after MacDonald. Bars: in use; hatched: closed; light: under construction.</text>
<line x1="250.0" y1="72" x2="250.0" y2="430" stroke="var(--line)"/>
<text x="250.0" y="452" text-anchor="middle" font-size="11" fill="var(--ink2)">7</text>
<line x1="283.9" y1="72" x2="283.9" y2="430" stroke="var(--line)"/>
<line x1="317.7" y1="72" x2="317.7" y2="430" stroke="var(--line)"/>
<text x="317.7" y="452" text-anchor="middle" font-size="11" fill="var(--ink2)">9</text>
<line x1="351.6" y1="72" x2="351.6" y2="430" stroke="var(--line)"/>
<line x1="385.5" y1="72" x2="385.5" y2="430" stroke="var(--line)"/>
<text x="385.5" y="452" text-anchor="middle" font-size="11" fill="var(--ink2)">11</text>
<line x1="419.4" y1="72" x2="419.4" y2="430" stroke="var(--line)"/>
<line x1="453.2" y1="72" x2="453.2" y2="430" stroke="var(--line)"/>
<text x="453.2" y="452" text-anchor="middle" font-size="11" fill="var(--ink2)">13</text>
<line x1="487.1" y1="72" x2="487.1" y2="430" stroke="var(--line)"/>
<line x1="521.0" y1="72" x2="521.0" y2="430" stroke="var(--line)"/>
<text x="521.0" y="452" text-anchor="middle" font-size="11" fill="var(--ink2)">15</text>
<line x1="554.8" y1="72" x2="554.8" y2="430" stroke="var(--line)"/>
<line x1="588.7" y1="72" x2="588.7" y2="430" stroke="var(--line)"/>
<text x="588.7" y="452" text-anchor="middle" font-size="11" fill="var(--ink2)">17</text>
<line x1="622.6" y1="72" x2="622.6" y2="430" stroke="var(--line)"/>
<line x1="656.5" y1="72" x2="656.5" y2="430" stroke="var(--line)"/>
<text x="656.5" y="452" text-anchor="middle" font-size="11" fill="var(--ink2)">19</text>
<line x1="690.3" y1="72" x2="690.3" y2="430" stroke="var(--line)"/>
<line x1="724.2" y1="72" x2="724.2" y2="430" stroke="var(--line)"/>
<text x="724.2" y="452" text-anchor="middle" font-size="11" fill="var(--ink2)">21</text>
<line x1="758.1" y1="72" x2="758.1" y2="430" stroke="var(--line)"/>
<line x1="791.9" y1="72" x2="791.9" y2="430" stroke="var(--line)"/>
<text x="791.9" y="452" text-anchor="middle" font-size="11" fill="var(--ink2)">23</text>
<line x1="825.8" y1="72" x2="825.8" y2="430" stroke="var(--line)"/>
<line x1="859.7" y1="72" x2="859.7" y2="430" stroke="var(--line)"/>
<text x="859.7" y="452" text-anchor="middle" font-size="11" fill="var(--ink2)">25</text>
<text x="880" y="468" text-anchor="end" font-size="11" fill="var(--ink2)">March 1945</text>
<a href="#/text/brueckenkopf/uebergaenge/12"><text x="240" y="100" text-anchor="end" font-size="13" fill="var(--ink)" text-decoration="underline">Ludendorff Bridge</text></a>
<rect x="272.7" y="88" width="180.5" height="18" rx="3" fill="var(--bruecke)"/>
<rect x="453.2" y="88" width="155.8" height="18" rx="3" fill="url(#bk-h)"/>
<text x="609.0" y="105" text-anchor="middle" font-size="22" font-weight="bold" fill="var(--film)">✕</text>
<a href="#/text/brueckenkopf/uebergaenge/11"><text x="240" y="140" text-anchor="end" font-size="13" fill="var(--ink)" text-decoration="underline">Ponton ferries</text></a>
<rect x="327.9" y="128" width="552.1" height="18" rx="3" fill="var(--us)"/>
<path d="M327.9,123 l6,14 l-6,14 l-6,-14 z" fill="var(--panel)" stroke="var(--us)" stroke-width="2"/>
<a href="#/text/brueckenkopf/uebergaenge/11"><text x="240" y="180" text-anchor="end" font-size="13" fill="var(--ink)" text-decoration="underline">Amphibious trucks (DUKW)</text></a>
<rect x="487.1" y="168" width="392.9" height="18" rx="3" fill="var(--us)"/>
<path d="M487.1,163 l6,14 l-6,14 l-6,-14 z" fill="var(--panel)" stroke="var(--us)" stroke-width="2"/>
<a href="#/text/brueckenkopf/uebergaenge/12"><text x="240" y="220" text-anchor="end" font-size="13" fill="var(--ink)" text-decoration="underline">Treadway Remagen–Erpel</text></a>
<rect x="351.6" y="208" width="44.0" height="18" rx="3" fill="var(--us)" opacity="0.3"/>
<rect x="395.6" y="208" width="484.4" height="18" rx="3" fill="var(--us)"/>
<path d="M395.6,203 l6,14 l-6,14 l-6,-14 z" fill="var(--panel)" stroke="var(--us)" stroke-width="2"/>
<a href="#/text/brueckenkopf/uebergaenge/12"><text x="240" y="260" text-anchor="end" font-size="13" fill="var(--ink)" text-decoration="underline">Heavy ponton Linz</text></a>
<rect x="419.4" y="248" width="460.6" height="18" rx="3" fill="var(--us)"/>
<path d="M419.4,243 l6,14 l-6,14 l-6,-14 z" fill="var(--panel)" stroke="var(--us)" stroke-width="2"/>
<a href="#/text/brueckenkopf/ausweitung/17"><text x="240" y="300" text-anchor="end" font-size="13" fill="var(--ink)" text-decoration="underline">Three VII Corps bridges</text></a>
<rect x="619.2" y="288" width="260.8" height="18" rx="3" fill="var(--us)"/>
<path d="M619.2,283 l6,14 l-6,14 l-6,-14 z" fill="var(--panel)" stroke="var(--us)" stroke-width="2"/>
<rect x="656.5" y="288" width="223.5" height="18" rx="3" fill="var(--us)"/>
<path d="M656.5,283 l6,14 l-6,14 l-6,-14 z" fill="var(--panel)" stroke="var(--us)" stroke-width="2"/>
<rect x="724.2" y="288" width="155.8" height="18" rx="3" fill="var(--us)"/>
<path d="M724.2,283 l6,14 l-6,14 l-6,-14 z" fill="var(--panel)" stroke="var(--us)" stroke-width="2"/>
<a href="#/text/brueckenkopf/uebergaenge/13"><text x="240" y="340" text-anchor="end" font-size="13" fill="var(--ink)" text-decoration="underline">Bailey bridge</text></a>
<rect x="622.6" y="328" width="67.7" height="18" rx="3" fill="var(--us)" opacity="0.3"/>
<rect x="690.3" y="328" width="189.7" height="18" rx="3" fill="var(--us)"/>
<path d="M690.3,323 l6,14 l-6,14 l-6,-14 z" fill="var(--panel)" stroke="var(--us)" stroke-width="2"/>
<line x1="250" y1="390" x2="880" y2="390" stroke="var(--ink2)" stroke-width="2"/>
<circle cx="272.7" cy="390" r="5" fill="var(--ink2)"/>
<a href="#/text/siebter/uebergang/17"><text x="272.7" y="412" text-anchor="middle" font-size="11.5" fill="var(--ink)" stroke="var(--panel)" stroke-width="4" paint-order="stroke" text-decoration="underline">crossing</text></a>
<circle cx="317.7" cy="390" r="5" fill="var(--ink2)"/>
<a href="#/text/brueckenkopf/auflagen/4"><text x="317.7" y="380" text-anchor="middle" font-size="11.5" fill="var(--ink)" stroke="var(--panel)" stroke-width="4" paint-order="stroke" text-decoration="underline">1,000 yards/day</text></a>
<circle cx="453.2" cy="390" r="5" fill="var(--ink2)"/>
<a href="#/text/brueckenkopf/auflagen/6"><text x="453.2" y="412" text-anchor="middle" font-size="11.5" fill="var(--ink)" stroke="var(--panel)" stroke-width="4" paint-order="stroke" text-decoration="underline">Eisenhower's directive</text></a>
<circle cx="609.0" cy="390" r="5" fill="var(--ink2)"/>
<a href="#/timeline"><text x="609.0" y="380" text-anchor="middle" font-size="11.5" fill="var(--ink)" stroke="var(--panel)" stroke-width="4" paint-order="stroke" text-decoration="underline">collapse</text></a>
<circle cx="724.2" cy="390" r="5" fill="var(--ink2)"/>
<a href="#/text/brueckenkopf/ausweitung/17"><text x="724.2" y="412" text-anchor="middle" font-size="11.5" fill="var(--ink)" stroke="var(--panel)" stroke-width="4" paint-order="stroke" text-decoration="underline">at the Sieg</text></a>
<circle cx="825.8" cy="390" r="5" fill="var(--ink2)"/>
<a href="#/text/brueckenkopf/ausweitung/18"><text x="825.8" y="380" text-anchor="middle" font-size="11.5" fill="var(--ink)" stroke="var(--panel)" stroke-width="4" paint-order="stroke" text-decoration="underline">German counterattack</text></a>
<circle cx="859.7" cy="390" r="5" fill="var(--ink2)"/>
<a href="#/timeline"><text x="859.7" y="412" text-anchor="middle" font-size="11.5" fill="var(--ink)" stroke="var(--panel)" stroke-width="4" paint-order="stroke" text-decoration="underline">breakout</text></a>
<text x="240" y="394" text-anchor="end" font-size="13" font-weight="bold" fill="var(--ink2)">Turning points</text>
</svg>